# xmcd
#
# Track frame offsets:
#	150
#	13652
#	35506
#	49314
#	65767
#	81624
#	101090
#	114780
#	135888
#	150164
#	188295
#	216912
#	228630
#	253423
#	271527
#	283666
#	298569
#	314687
#
# Disc length: 4362 seconds
#
# Revision: 0
# Processed by: cddbd v1.5PL3 Copyright (c) Steve Scherf et al.
# Submitted via: dBpowerAMP V4.0
#
DISCID=02110812
DTITLE=Taj Mahal - Best of
DYEAR=2000
DGENRE=Blues
TTITLE0=Statesboro Blues
TTITLE1=Leaving Trunk
TTITLE2=Corrina
TTITLE3=Going up to the Country, Paint My Mailbox Blue
TTITLE4=She Caught the Katy (And Left Me a Mule to Ride)
TTITLE5=Take a Giant Step
TTITLE6=Six Days on the Road
TTITLE7=Farther on Down the Road (You Will Accompany Me)
TTITLE8=Fishin' Blues
TTITLE9=Ain't Gwine to Whistle Dixie Anymo' [Live]
TTITLE10=You're Gonna Need Somebody on Your Bond [Live]
TTITLE11=Cakewalk into Town
TTITLE12=Oh Susanna
TTITLE13=Frankie and Albert
TTITLE14=Chevrolet
TTITLE15=Johnny Too Bad
TTITLE16=Sweet Mama Janisse
TTITLE17=Last Track
EXTD=
EXTT0=
EXTT1=
EXTT2=
EXTT3=
EXTT4=
EXTT5=
EXTT6=
EXTT7=
EXTT8=
EXTT9=
EXTT10=
EXTT11=
EXTT12=
EXTT13=
EXTT14=
EXTT15=
EXTT16=
EXTT17=
PLAYORDER=
